<?xml version="1.0" encoding="UTF-8" standalone="no"?>
<svg
   xmlns:dc="http://purl.org/dc/elements/1.1/"
   xmlns:cc="http://creativecommons.org/ns#"
   xmlns:rdf="http://www.w3.org/1999/02/22-rdf-syntax-ns#"
   xmlns:svg="http://www.w3.org/2000/svg"
   xmlns="http://www.w3.org/2000/svg"
   xmlns:sodipodi="http://sodipodi.sourceforge.net/DTD/sodipodi-0.dtd"
   xmlns:inkscape="http://www.inkscape.org/namespaces/inkscape"
   version="1.1"
   id="svg2"
   xml:space="preserve"
   width="793.33331"
   height="1121.3333"
   viewBox="0 0 793.33331 1121.3333"
   sodipodi:docname="AAACEC.eps"><metadata
     id="metadata8"><rdf:RDF><cc:Work
         rdf:about=""><dc:format>image/svg+xml</dc:format><dc:type
           rdf:resource="http://purl.org/dc/dcmitype/StillImage" /></cc:Work></rdf:RDF></metadata><defs
     id="defs6" /><sodipodi:namedview
     pagecolor="#ffffff"
     bordercolor="#666666"
     borderopacity="1"
     objecttolerance="10"
     gridtolerance="10"
     guidetolerance="10"
     inkscape:pageopacity="0"
     inkscape:pageshadow="2"
     inkscape:window-width="640"
     inkscape:window-height="480"
     id="namedview4" /><g
     id="g10"
     inkscape:groupmode="layer"
     inkscape:label="ink_ext_XXXXXX"
     transform="matrix(1.3333333,0,0,-1.3333333,0,1121.3333)"><g
       id="g12"
       transform="scale(0.1)"><path
         d="m 3038.27,1930.45 c 1391.64,0 2519.78,1128.14 2519.78,2519.78 0,1391.63 -1128.14,2519.78 -2519.78,2519.78 -1391.64,0 -2519.786,-1128.15 -2519.786,-2519.78 0,-1391.64 1128.146,-2519.78 2519.786,-2519.78 z m 1479.75,3960.88 233.3,199.7 89.88,-115.28 -47.21,-194.29 129.36,116.2 66.94,-79.66 -232.39,-202.43 -91.69,101.67 49.93,211.51 -132.53,-115.29 z m 555.79,-244.41 -256.9,-168.62 65.35,-90.78 256.01,162.5 z m -3749.23,381.51 242.38,232.39 51.74,-52.65 -85.32,-81.7 162.49,-153.42 -78.98,-72.62 -157.05,149.78 -78.07,-78.98 z m 1399.3,809.75 c 17.17,24.64 36.82,33.84 66.73,37.9 31.77,4.97 39.83,-13.62 64.45,-18.15 19.35,-3.56 42.17,6.95 59.92,19.06 7.4,5.05 15.87,0.18 11.57,-12.03 -4.95,-29.28 -23.19,-46.62 -44.57,-49.79 -29.69,-4.42 -47.73,21.16 -82.07,21.2 -22.91,0.02 -37.28,-2.3 -60.13,-21.11 -16.24,-13.35 -25.1,9.72 -15.9,22.92 z m 1585.28,-407 89.95,-64.63 -101.38,-138.23 c -37.49,-51.12 77.57,-131.37 104.38,-92.36 l 103.72,151.02 89.97,-65.52 -110.28,-143.94 c -34.23,-44.67 -115.63,-54.86 -158.25,-23.63 l -100.2,73.42 c -34.68,25.41 -43.32,119.88 -23.35,149.17 z m -3277.93,-796.29 67.19,88.06 135.26,-105.3 c 50.03,-38.95 133.55,73.76 95.32,101.67 l -147.98,108.03 68.09,88.06 140.71,-114.39 c 43.66,-35.49 51.5,-117.14 19.06,-158.86 l -76.25,-98.04 c -26.41,-33.94 -121.08,-39.87 -149.79,-19.07 z m 4265.89,-1943.84 -267.41,116.83 -48.6,-93.71 102.82,-54.92 -50.38,-103.72 c -75.39,-155.18 125.6,-200.62 177.34,-74.56 z m -95.42,-81.67 -68.67,28.29 -32.81,-73.68 c -23.37,-52.49 47.74,-70.48 67.3,-28.3 z M 803.422,5159.91 1070.31,5041.9 l 49.02,93.5 -102.58,55.38 50.84,103.49 c 76.07,154.85 -124.723,201.17 -177.02,75.34 z m 95.777,81.25 68.539,-28.59 33.142,73.53 c 23.6,52.38 -47.439,70.69 -67.185,28.6 z m 4238.731,-872.39 284.24,-39.08 -14.38,-154.94 -168.12,-46.17 147.29,-72.32 -14.33,-158.55 -280.19,43.04 7.34,84.29 200.22,-19.95 -188.37,102.3 7.66,78.84 221.42,54.95 -208.12,31.93 z m -4150.352,91.88 -285.047,32.68 10.895,155.23 167.031,49.93 -148.875,68.99 10.762,158.84 281.086,-36.74 -5.45,-84.42 -200.617,15.43 190.637,-98.04 -5.9,-78.98 -220.127,-59.92 208.793,-27.24 z m -93.258,-688.39 45.032,-97.31 c -54.879,-68.99 -3.926,-182.58 91.498,-156.87 82.47,22.22 45.28,164.77 -26.14,169.94 l -47.929,108.93 c 172.609,38.76 316.459,-289.37 123.449,-376.19 -201.105,-90.47 -332.273,260.36 -185.91,351.5 z m 1608.18,2866.77 -94.39,-45.02 c -67.28,54.66 -177.45,3.71 -152.05,-91.43 21.96,-82.22 160.34,-44.98 165.05,26.26 l 105.65,47.92 c 16.79,-75.16 -34.47,-144.94 -104.63,-183.66 v -0.01 l -0.29,-12.43 h -0.01 l -0.21,-9.16 c 25.07,5.72 42.49,3.12 52.65,-7.27 27.34,-27.97 -46.38,-75.3 -56.74,-62.18 l -6.81,8.63 c 16.49,3.02 61.92,20.14 37.22,40.39 -11.45,9.39 -30.51,3.18 -55.83,-14.52 8.52,16.11 10.68,31.07 5.9,44.78 H 2398 c -86.91,-37.08 -192.44,-27.11 -236.3,71.88 -88.8,200.48 251.58,331.7 340.8,185.82 z m 2743.68,-1658.08 -38.77,97.12 c 58.92,63.59 15.26,176.84 -81.34,157.7 -83.48,-16.56 -55.33,-157.07 15.46,-166.42 l 40.93,-108.55 c -174.25,-27.13 -297.05,299.84 -99.49,372.34 205.84,75.55 314.6,-272.67 163.21,-352.19 z m -1768.5,-2694.13 -106.02,-16.05 c -50.91,71.98 -174.21,54.8 -176.19,-44 -1.72,-85.4 145.55,-89.53 170.47,-22.4 l 117.99,15.58 c -11.02,-176.56 -366.29,-222.99 -395.71,-13.4 -30.66,218.38 342.85,246.27 389.46,80.27 z m 926.12,393.39 -92.54,-50.05 c -70.92,49.53 -179.05,-7.33 -148.03,-99.22 26.81,-79.4 164.13,-34.25 164.82,36.01 l 103.76,53.6 c 48.52,-166.66 -264.03,-327.63 -360.87,-143.93 -100.9,191.43 234.65,341.36 332.86,203.59 z m -800.86,-242.1 99.85,-291.4 309.56,106.21 -25.36,66.63 -194.32,-67.54 -16.96,49.55 149.5,51.22 -20.88,55.37 -147.47,-51.58 -20.47,59.75 190.78,60.39 3.81,-10 -25.74,67.63 z m -264.72,4358.24 c 116.92,0 211.7,-76.41 211.7,-170.67 0,-94.26 -94.78,-170.67 -211.7,-170.67 -116.92,0 -211.69,76.41 -211.69,170.67 0,94.26 94.77,170.67 211.69,170.67 z m -2.9,-90.79 c 47.53,0 86.06,-33.65 86.06,-75.16 0,-41.51 -38.53,-75.16 -86.06,-75.16 -47.53,0 -86.06,33.65 -86.06,75.16 0,41.51 38.53,75.16 86.06,75.16 z M 1024.23,4132.84 c 10.65,-116.43 -56.812,-217.77 -150.683,-226.34 -93.859,-8.59 -178.582,78.85 -189.211,195.28 -10.648,116.43 56.812,217.77 150.684,226.35 93.863,8.58 178.59,-78.85 189.21,-195.29 z m -90.66,-5.37 c 4.332,-47.33 -25.679,-88.76 -67.015,-92.54 -41.34,-3.78 -78.364,31.53 -82.684,78.86 -4.332,47.34 25.68,88.76 67.016,92.55 41.34,3.78 78.363,-31.54 82.683,-78.87 z m 875.85,1954.35 -64.48,309.57 123.42,80.49 271.37,-180.27 -98.5,-60.15 -32.84,17.18 -110.32,-69.82 12.93,-43.91 z m 64.58,161.46 73.1,47.31 -93.18,61.11 z m 784.79,228.36 96.16,301.24 147.05,9.36 147.57,-290.44 -115.35,-3.92 -20.13,31.12 -130.4,-6.52 -10.35,-44.59 z m 135.66,108.81 86.91,5.22 -51.06,99.05 z m 2306.47,-1739.24 306.13,-79.17 17.56,-146.3 -281.74,-163.56 -10.36,114.95 29.95,21.83 -13.8,129.84 -45.1,7.84 z m 116.21,-129.37 10.07,-86.48 96.04,56.52 z m -2635.01,-2616.35 149.06,278.87 146.32,-17.39 92.6,-312.35 -114.16,17.01 -14.17,34.25 -129.43,17.18 -18.24,-41.98 z m 153.11,82.46 86.42,-10.58 -32.31,106.65 z m -678.55,110.1 214.09,232.71 137.31,-53.45 11.5,-325.58 -106.27,45.03 -5.15,36.7 -121.01,49.02 -28.16,-36.08 z m 168.87,41.53 81.02,-31.87 -4.6,111.35 z m -639.64,221.05 252,191 125.64,-76.98 -46.48,-322.45 -96.59,63.18 1.45,37.04 -110.38,69.72 -34.14,-30.51 z m 173.55,10.89 74.09,-45.75 15.25,110.39 z m 310.99,1824.12 c 2.64,52.86 18.52,105.71 50.23,158.56 46.5,-7.66 105.48,-36.16 153.11,64.16 95.32,200.75 302.63,395.14 758.38,580.38 -38.85,174.12 -127.51,326.28 -309.21,437.45 202.38,182.03 418.89,197.41 652.72,9.07 -22.26,-154.4 -61.87,-300.11 -118.02,-437.55 354.59,23.45 1122.24,318.72 1250.94,499.28 35.38,-28.15 62.95,-59.9 82.61,-95.31 -183.41,-108.96 -410.2,-218.83 -678.97,-304.14 -344.1,-109.22 -583.9,-153.56 -679.03,-147.06 57.9,169.34 97.63,318.81 71.97,415.45 -20.45,77.05 -102.67,115.89 -185.64,131.41 -90.61,16.94 -215.89,14.3 -345.72,-60.29 234.07,-80.22 315.55,-209.59 277.79,-515.62 -477.04,-137.03 -680.81,-373.73 -746.23,-660.86 -57.05,1.64 -110.61,11.08 -157.96,34.5 -25.66,-17.44 -51.31,-53.25 -76.97,-109.43 z m -547.09,-272.96 c -156.74,592.38 -2.47,832.08 332.41,1109.82 -397.98,-227.13 -499.38,-637.08 -426.09,-1154.71 -44.97,-37.93 -57.24,-87.18 -16.95,-150.09 11.55,-18.02 17.45,-44.55 31.47,-77.46 136.91,-321.2 488.25,-534.69 959.18,-584.04 18.32,197.87 403.7,275.15 607.62,305.96 285.58,43.15 440.49,31.73 641.64,-98.49 228.49,-147.92 498.68,-338.93 691.74,-433.96 l 137.99,134.36 c -328.85,162.79 -574.9,334.92 -726.49,519.55 -20.52,25 -22.73,50.99 -13.62,84.43 39.1,143.46 54.45,294.97 45.96,452.7 -20.16,374.66 -111.88,526.84 -326.19,571.32 164.38,-144.54 256.48,-306.48 243.3,-483.55 -13.56,-182.06 -82.46,-354.43 -187.62,-521.07 -17.24,-27.34 -87.46,-59.21 -120.33,-67.57 -253.25,-64.36 -432.52,-90.87 -668.14,-118.61 44.45,64.17 72.95,128.34 91.6,192.51 -227.59,-215.78 -424.02,-339.38 -440.59,-524.09 -244.26,-10.52 -575.61,183.13 -780.06,421.92 -118.94,138.9 -139.42,265.12 -77.8,376.79 11.07,20.05 5.09,28.66 0.97,44.28 z m 2724.78,-86.02 c 263.2,-135.43 459.59,-107.38 660.88,-39.94 -20.7,-99.53 -47.09,-184.93 -77.47,-260.24 -362.53,-31.56 -497.25,75.54 -583.41,300.18 z m 139.27,362.82 c 214.51,6.4 411.25,37.98 587.03,99.25 5.38,-61.3 2.69,-121.87 -9.69,-181.56 -202.01,-36.36 -370.49,-24.96 -577.34,82.31 z m -168.16,456.98 c 68.02,105.24 128.34,164.63 268.1,257.45 85.97,57.1 198.49,169.73 265.68,243.64 71.56,-122.17 124.1,-261.5 163.4,-412.73 -276.04,4.33 -521.22,-15.23 -697.18,-88.36 z m -1741.2,-260.21 c 72.07,107.31 157.59,225.62 263.26,331.64 65.01,65.21 123.31,91.31 173.69,38.13 33.88,-35.76 66.64,-83.38 85.33,-127.1 -53.52,49.51 -120.11,62.53 -198.5,-3.02 -99.81,-83.45 -212.19,-167.65 -323.78,-239.65 z m -571.67,-382.18 c -22.84,10.45 -26.25,-19.73 -10.89,-34.19 15.31,-14.41 43.35,-19.48 44.79,-3.64 1.45,15.97 -15.69,29.51 -33.9,37.83 z m -57.24,75.34 c 43.25,32.47 64.45,78.67 73.81,119.21 14.21,-17.3 20.51,-26.32 29.35,-47.21 11.19,-26.41 35.85,-27.56 64.48,-16.32 57.25,22.48 96.62,-18.41 57.49,-137.98 -42.91,78.64 -106.8,110.36 -225.13,82.3 z m -118.64,-58.89 c -63.02,64.4 -95.96,157.68 -118.62,260.84 -36.86,-82.79 0.47,-224.56 56.89,-315.31 z m 701.38,113.18 c 43.16,40.42 66.91,73.74 93.75,86.93 11.3,5.55 92.74,20.42 153.75,25.15 -43.29,-59.26 -85.12,-97.04 -125.25,-104.21 -43.48,-7.77 -83.55,-8.64 -122.25,-7.87 z m -192.58,-48.56 24.21,55.69 c 130.6,0.47 230.09,67.31 288.07,222.71 122.71,11.99 243.65,63.04 363.12,147.66 4.34,-16.77 4.43,-32.25 -1.2,-54.37 44.85,3.11 111.39,-16.81 139.48,-50.93 -84.6,-31.3 -152.75,-79.16 -213.32,-134.35 -76.68,-69.85 -167.03,-119.46 -261.45,-159.78 13.15,-6.19 33.46,-32.48 38.73,-60.51 -122.17,23.18 -247.4,36.53 -377.64,33.88 z m -110.61,1100.27 c -549.14,-153.19 -837.56,-549.01 -734.7,-1309.03 -50.22,-38.01 -68.5,-101.5 -23.07,-175.24 10.6,-17.2 18.72,-26.81 24.8,-40.73 170.96,-391.53 523.5,-589.52 1034.37,-642.21 -11.93,130.01 168.26,252.13 549.52,301.35 205.16,26.5 383.75,94.09 695.99,-110.14 216.29,-141.48 427.04,-280.55 640.57,-403.61 -340.14,-298.24 -786.49,-479.23 -1275.37,-479.23 -1066.25,0 -1930.6,860.53 -1930.6,1922.06 0,1061.53 864.35,1922.06 1930.6,1922.06 573.91,0 1089.22,-249.4 1442.84,-645.17 -142.44,-133.11 -332.46,-226.39 -550.31,-307.1 -267.92,-99.26 -479.47,-170.04 -622.58,-181.32 53.73,130.94 85.87,271.7 104.09,418.79 -281.9,227.71 -531.5,198.75 -755.3,-35.1 183.73,-105.37 278.23,-248.08 323.15,-411.55 -398.34,-157.96 -654.71,-369.78 -772.24,-634.25 -35.73,-3.51 -55.86,-1.72 -98.04,15.74 -41.2,-41.88 -62.89,-98.93 -75.05,-163.41 -39.59,17.12 -73.17,49.25 -99.85,98.64 -17.65,-13.07 -33.8,-28.29 -47.82,-46.6 -184.21,415.37 -35.34,687.67 239,906.05 z M 3873.55,6404.5 c 38.43,0 69.59,30.89 69.59,69 0,38.1 -31.16,68.99 -69.59,68.99 -38.44,0 -69.6,-30.89 -69.6,-68.99 0,-38.11 31.16,-69 69.6,-69 z m 972.67,-3355.95 c 38.44,0 69.6,30.89 69.6,68.99 0,38.11 -31.16,69 -69.6,69 -38.43,0 -69.59,-30.89 -69.59,-69 0,-38.1 31.16,-68.99 69.59,-68.99 z M 1277.36,3029.4 c 38.44,0 69.6,30.89 69.6,68.99 0,38.1 -31.16,68.99 -69.6,68.99 -38.43,0 -69.6,-30.89 -69.6,-68.99 0,-38.1 31.17,-68.99 69.6,-68.99"
         style="fill:#231f20;fill-opacity:1;fill-rule:evenodd;stroke:none"
         id="path14" /></g></g></svg>
